<?xml version="1.0" encoding="utf-8"?>
<!-- Generator: Adobe Illustrator 15.0.0, SVG Export Plug-In . SVG Version: 6.00 Build 0)  -->
<!DOCTYPE svg PUBLIC "-//W3C//DTD SVG 1.1//EN" "http://www.w3.org/Graphics/SVG/1.1/DTD/svg11.dtd">
<svg version="1.1" id="Layer_1" xmlns="http://www.w3.org/2000/svg" xmlns:xlink="http://www.w3.org/1999/xlink" x="0px" y="0px"
	 width="500px" height="500px" viewBox="0 0 500 500" enable-background="new 0 0 500 500" xml:space="preserve">
<path fill-rule="evenodd" clip-rule="evenodd" fill="#FFFFFF" d="M255.4,165.16c-3.036-0.851-6.429-0.671-7.92,1.44
	c-1.739,2.46-0.379,7.516-3.6,7.92c-0.445-4.435-2.174-7.585-3.6-11.04c1.534,0.226,3.105,0.416,4.8,0.48
	c-3.302-9.979-8.928-17.632-17.52-22.32c2.097,3.213,5.873,5.372,8.64,8.64c2.791,3.296,4.18,7.456,6.24,11.52
	c-1.205,0.32-3.461-0.375-5.04-0.48c-0.292,2.012,2.241,3.564,2.64,6.24c0.528,3.544-1.459,8.238-3.84,8.64
	c-3.786,0.639-4.752-3.408-5.76-6.48c-1.094,2.681,0.144,6.575,0.96,8.88c-0.288,2.757-2.137,4.944-1.2,8.16
	c-2.261,1.02-3.446,3.115-5.04,4.8c-0.378-3.302-2.938-4.422-5.52-5.52c-0.345-15.853-8.104-40.343,2.16-52.56
	c1.366-1.626,4.06-2.893,6.24-0.96c0.741,0.657,1.153,1.848,1.92,2.64c2.029,2.095,4.948,3.805,6.96,6
	c3.973,4.333,6.51,10.308,10.32,14.88C250.122,159.499,254.252,161.091,255.4,165.16z"/>
<path fill-rule="evenodd" clip-rule="evenodd" fill="#FFFFFF" d="M313.96,224.44c-1.9-1.21-3.386-1.041-5.76-0.48
	c-1.326-4.821,3.412-7.766,3.12-12.24c2.422-0.618,4.713-1.367,6.239-2.88c-2.369-0.499-4.174,1.573-6.72,1.2
	c-2.453-0.359-3.563-2.521-3.359-4.8c0.277-3.113,3.642-5.099,5.039-6.96c3.47-0.451,6.589-1.251,9.601-2.16
	c-3.13-0.95-6.924-1.236-10.08-2.16c7.838-4.145,17.369-8.946,29.52-7.2c-2.829-1.991-8.612-1.799-12.239-1.2
	c-8.042,1.328-15.587,5.487-21.601,8.4c1.479,1.162,3.742,1.539,5.761,2.16c-5.174,1.227-9.773,3.027-13.2,6
	c-0.354-1.855,1.192-3.531,1.92-5.28c0.195-0.471,0.024-1.277,0.24-1.68c1.231-2.296,3.333-3.081,3.119-5.76
	c-0.146-1.84-1.337-2.266-2.399-3.6c9.617-0.833,21.232-3.921,31.68-5.04c5.965-0.638,16.039-0.015,16.32,6
	c0.237,5.091-2.53,10.015-5.04,13.68c-2.689,3.928-5.756,6.823-9.36,9.36c-3.977,2.799-8.455,3.964-12.479,6.24
	C320.054,218.431,317.324,221.598,313.96,224.44z"/>
<path fill-rule="evenodd" clip-rule="evenodd" d="M245.32,192.28c2.676,1.484,2.279,6.041,3.84,8.64
	c1.013-0.347,0.508-2.211,1.68-2.4c0.574,11.214-11.322,9.958-17.76,14.16c0.659-2.381,3.27-2.811,4.8-4.32
	c0.433-2.273-1.267-2.413-1.92-3.6C234.066,196.749,237.034,191.471,245.32,192.28z M240.52,197.56
	c0.613-0.027,0.477-0.804,0.48-1.44c-0.4,0-0.8,0-1.2,0C239.791,196.85,239.661,197.7,240.52,197.56z M241.72,201.4
	c-3.327,0.733-3.149-2.933-3.84-4.08C236.796,200.063,239.392,202.891,241.72,201.4z"/>
<path fill-rule="evenodd" clip-rule="evenodd" fill="#FFFFFF" d="M237.88,197.32c0.691,1.147,0.514,4.813,3.84,4.08
	C239.392,202.891,236.796,200.063,237.88,197.32z"/>
<path fill-rule="evenodd" clip-rule="evenodd" fill="#FFFFFF" d="M271.96,212.2c0.302,2.978,1.197,5.363,4.32,5.52
	c-3.201,0.959-4.524-2.035-5.28-4.32C271.162,212.842,271.798,212.757,271.96,212.2z"/>
<path fill-rule="evenodd" clip-rule="evenodd" fill="#FFFFFF" d="M237.88,242.44c1.393,0.288,2.023,1.337,3.84,1.2
	c0,0.4,0,0.8,0,1.2c-1.972,0.132-3.035-0.645-4.08-1.44C237.826,243.187,237.898,242.858,237.88,242.44z"/>
<path fill-rule="evenodd" clip-rule="evenodd" d="M261.64,249.4c-0.476,1.075-1.954-0.817-1.68,0.24
	C258.899,248.514,261.088,249.319,261.64,249.4z"/>
<path fill-rule="evenodd" clip-rule="evenodd" d="M253,250.84c-0.011,0.41,0.179,0.622,0.48,0.72
	c-0.615,0.664-1.277-0.915-0.48-1.199C253.302,250.419,253.242,250.837,253,250.84z"/>
<path fill-rule="evenodd" clip-rule="evenodd" d="M230.44,262.6c4.101,5.66,8.691,10.829,15.36,13.92
	c0.741-0.834-0.263-1.966,0-3.119c3.833,1.843,7.249,3.9,10.8,6.72c0.861,0.684,2.675,2.318,3.36,2.399
	c1.913,0.229,4.989-2.258,6.72-3.359c2.271-1.446,4.018-2.694,6.24-3.601c0.75-0.109,0.768,0.514,0.72,1.2
	c7.172-2.828,11.557-8.443,16.561-13.439c-4.041,6.76-9.355,12.244-17.04,15.359c-0.871,0.231-0.202-1.078-0.96-0.96
	c-4.283,2.277-7.608,5.512-12.72,6.96c-3.566-2.994-7.03-6.09-11.521-8.16c-0.299,0.085,0.198,1.384,0,2.16
	C239.313,276.126,233.904,270.336,230.44,262.6z"/>
<path fill-rule="evenodd" clip-rule="evenodd" fill="#FFFFFF" d="M218.68,302.92c0.538,1.367-2.83,2.909-3.36,4.8
	c2.729,0.169,4.581-0.54,6.96-0.72c-0.923,2.197-2.348,3.893-3.6,5.76c2.121-0.302,4.632-2.25,7.2-0.479
	c2.586,1.783,4.042,6.766,6,11.04c1.422,3.104,4.709,7.217,5.76,11.04c1.056,3.843-0.015,7.617,0,11.04
	c0.023,5.374,2.978,9.399,2.88,14.399c-0.035,1.795-1.307,3.843-2.4,4.561c-2.49,1.635-8.807,3.194-10.32,1.439
	c-0.597-3.207-0.229-7.392,0.96-9.6c-2.315,1.604-2.454,5.386-2.4,9.359c-3.729,2.387-8.132-0.955-11.76,0.721
	c0.009-6.471,2.524-10.437,6.96-12.48c-5.784,0.146-8.833,6.354-8.64,12.48c-1.019,0.181-1.839,0.561-3.12,0.479
	c-0.349-6.297,1.389-12.51,6.24-14.399c-6.267-0.107-7.451,6.949-8.4,12.96c-0.631,0.248-1.473,0.287-2.4,0.239
	c-2.559-6.747,1.479-11.764,6.24-13.439c-0.649-0.634-1.592,0.476-2.64,0.24c-0.27-10.53-4.047-17.553-6.96-25.44
	c6.831-3.463,27.947,3.475,24.24-8.4c-1.563-5.008-9.054-4.443-12.96-7.92c-2.094-1.863-2.347-3.666-3.6-6.72
	C212.749,303.708,215.898,303.498,218.68,302.92z M215.32,349.96c4.353,1.008,9.792,0.929,13.92,2.16
	C227.318,348.771,219.376,348.256,215.32,349.96z"/>
<path fill-rule="evenodd" clip-rule="evenodd" fill="#FFFFFF" d="M194.92,343.96c-1.151,2.062-4.621,2.647-6.96,2.16
	c-3.709-5.011-8.198-9.242-16.8-9.36c1.208-1.352,3.216-1.904,3.84-3.84c-0.633-0.407-1.369-0.711-2.4-0.72
	c1.432-1.485,3.09-1.626,4.8-2.88c2.697-1.979,4.264-5.557,6.72-6.48c5.367-2.019,4.913,5.612,5.52,10.08
	C190.298,337.761,194.402,339.462,194.92,343.96z"/>
<path fill-rule="evenodd" clip-rule="evenodd" fill="#FFFFFF" d="M306.28,337.72c2.868,1.648,9.705,5.232,8.88,9.601
	c-0.358,1.894-3.417,3.078-1.92,6.239c-0.725,0.716-1.649,1.23-2.88,1.44c-0.737-0.562,1.813-1.819,1.199-3.84
	c4.232-2.713-0.161-7.861-3.119-9.12c0.138,2.023,3.009,3.39,3.359,6c-1.985,1.215-1.809,4.592-3.6,6
	c-1.347-0.733-1.813-2.347-3.12-3.12C306.196,346.877,304.442,341.216,306.28,337.72z"/>
<path fill-rule="evenodd" clip-rule="evenodd" fill="#FFFFFF" d="M176.68,359.08c0.949-2.811,2.855-4.664,4.08-7.2
	c-1.596,0.806-3.479,3.4-4.56,5.521c-2.275,0.275-5.064,1.376-6.96,0c-1.374-6.114,3.594-9.773,8.64-11.04
	c-0.386-1.243-1.736-0.597-2.4-0.48c-3.794,0.663-7.623,4.698-8.64,8.4c-5.089-4.619,0.142-11.609,5.52-12.24
	c-3.682-0.979-8.388,2.081-9.36,5.28c-0.43,1.414,0.381,2.885-0.72,4.08c-1.562-1.831-1.119-6.999,0-8.881
	c1.333-2.24,6.245-4.334,10.32-4.079c6.728,0.42,16.388,6.829,14.88,15.359C186.741,357.982,182.245,359.521,176.68,359.08z"/>
<path fill-rule="evenodd" clip-rule="evenodd" d="M229.24,352.12c-4.128-1.231-9.568-1.152-13.92-2.16
	C219.376,348.256,227.318,348.771,229.24,352.12z"/>
<path fill-rule="evenodd" clip-rule="evenodd" d="M299.32,352.84c-5.426-0.415-11.303-0.378-16.801-0.72
	c1.767-1.335,5.425-1.468,8.4-1.44C294.18,350.711,297.809,351.207,299.32,352.84z"/>
<path fill-rule="evenodd" clip-rule="evenodd" fill="#FFFFFF" d="M295.24,372.76c-1.04,0-2.08,0-3.12,0
	c0.796-1.082,1.683-0.282,3.12-0.24C295.24,372.6,295.24,372.68,295.24,372.76z"/>
<path fill-rule="evenodd" clip-rule="evenodd" d="M269.8,242.44c0.689,1.219-1.416,2.879-0.479,4.08
	c-0.204,0.044-0.227-0.094-0.24-0.24c-0.575-0.095,0.133,1.093-0.72,0.72C269.139,244.997,269.075,243.975,269.8,242.44z"/>
<path fill-rule="evenodd" clip-rule="evenodd" d="M269.08,246.76c-0.141,1.104,0.124,1.202,1.2,1.44
	c-0.833,0.794-1.789-0.841-3.36-0.48C267.354,247.115,269.227,247.946,269.08,246.76z"/>
<path fill-rule="evenodd" clip-rule="evenodd" fill="#FFFFFF" d="M275.56,213.16c0.228,0.867-0.944,0.334-1.439,0.48
	c-0.331-0.31-0.237-1.042-0.24-1.68c0.48,0,0.96,0,1.44,0c-0.213,0.587-1.341,0.26-1.2,1.2c0.429,0.067,0.492-0.227,0.24-0.24
	C274.244,212.603,275.46,212.905,275.56,213.16z"/>
<path fill-rule="evenodd" clip-rule="evenodd" d="M271,225.4c-0.229,1.932-0.167,4.153-1.68,4.8
	c2.789-8.613-6.651-14.936-5.04-21.84c0.176-0.754,0.612-1.574,1.68-1.92c-0.061,0.819-0.606,1.153-0.479,2.16
	c4.578,2.921,7.302-4.837,13.199-2.16c3.358,1.524,5.148,7.281,4.561,12.48C279.051,220.971,275.214,223.374,271,225.4z
	 M274.36,212.92c0.252,0.013,0.188,0.308-0.24,0.24c-0.141-0.94,0.987-0.613,1.2-1.2c-0.48,0-0.96,0-1.44,0
	c0.003,0.638-0.091,1.371,0.24,1.68c0.495-0.146,1.667,0.387,1.439-0.48C275.46,212.905,274.244,212.603,274.36,212.92z M271,213.4
	c0.756,2.286,2.079,5.28,5.28,4.32c-3.123-0.157-4.019-2.542-4.32-5.52C271.798,212.757,271.162,212.842,271,213.4z"/>
<path fill-rule="evenodd" clip-rule="evenodd" d="M223.72,127c0.96,0,1.92,0,2.88,0c0,0.08,0,0.16,0,0.24
	c2.919,0.167,5.083,3.204,7.44,5.52c2.292,2.252,4.609,4.121,6.24,6c3.971,4.577,6.486,10.168,9.84,14.4
	c3.017,3.806,7.446,6.791,9.36,11.04c7.605-0.26,14.015-0.649,19.68,1.44c6.56,2.418,11.901,8.228,17.28,12.48
	c1.554,1.229,3.987,4.391,5.279,4.56c0.74,0.097,2.608-0.958,4.08-1.2c4.342-0.713,9.214-1.388,12.96-2.16
	c11.854-2.441,33.397-7.345,36.721,6.24c0,1.28,0,2.56,0,3.84c-0.08,0-0.16,0-0.24,0c-2.502,12.358-9.597,20.712-19.2,25.92
	c-3.2,1.736-6.828,2.559-10.32,4.56c-5.563,3.188-7.913,8.649-15.12,10.56c-3.936,1.043-8.462,0.596-9.359,4.56
	c-1.06,4.678,3.16,8.095,4.8,11.76c1.054,2.354,1.909,5.053,2.16,7.681c0.323,3.386-0.748,6.319-0.48,8.64
	c0.567,4.909,4.604,7.787,4.561,13.68c-0.022,2.978-1.642,4.793-1.92,8.16c-0.406,4.913,2.87,9.798,3.359,15.12
	c0.356,3.876-1.523,7.548-1.68,11.52c-0.223,5.644,1.244,10.757,0,16.32c-0.544,2.433-1.598,4.437-2.16,7.2
	c5.402,2.256,13.229,10.075,7.68,16.8c0.52,4.919-3.065,5.734-5.76,7.44c0.57,5.708-0.486,10.726-5.04,12
	c-3.156,0.883-6.895-0.325-10.08,1.439c-0.479,0-0.96,0-1.439,0c0-0.08,0-0.16,0-0.24c-1.438-0.042-2.324-0.842-3.12,0.24
	c-0.88,0-1.76,0-2.64,0c-0.839-0.454-4.468-1.987-5.761-1.92c-0.941,0.049-1.667,1.044-2.88,0.96c-0.803-0.056-6.617-2.95-7.68-3.6
	c-2.286-1.397-3.581-3.41-4.561-6.24c-5.068,1.386-11.021,2.552-16.319,0.96c-1.885,1.258-5.573,0.236-7.68-0.96
	c-0.86,5.017-8.527,9.065-14.64,8.88c-1.178-0.035-2.403-0.953-3.84-0.96c-1.47-0.007-2.924,0.978-4.56,0.96
	c-1.232-0.013-2.529-0.732-3.84-0.72c-1.969,0.019-5.54,1.183-7.92,0.96c-0.94-0.088-1.965-0.917-3.12-1.2
	c-1.379-0.339-2.471-0.043-3.36-0.479c-4.075-2-2.96-9.169-2.64-13.681c-3.015-2.295-5.934,1.882-9.84,1.681
	c-2.142,3.524-7.597,6.951-14.4,5.76c-0.805-0.141-1.72-1.077-2.64-1.2c-1.753-0.234-3.12,0.561-4.56,0.24
	c-3.698-0.824-3.777-4.518-6.72-6.48c-1.862-1.241-3.244-0.921-4.32-3.12c-0.586-1.197-0.878-3.224-0.72-4.8
	c-3.834-1.605-9.807-1.073-12.48-3.84c0-0.64,0-1.28,0-1.92c1.694-2.281,4.499-3.643,6.24-6c0.679-0.919,0.849-1.611,1.68-2.4
	c4.044-3.839,10.61-4.202,18.48-5.04c2.364-11.216,4.04-19.906,12-25.439c3.511-2.44,8.974-3.565,10.8-6.72
	c1.533-2.648,2.11-6.986,3.36-10.561c1.23-3.519,2.628-7.101,3.6-10.32c2.236-7.405,3.062-15.427,5.04-22.8
	c1.818-6.777,6.49-13.004,9.84-19.2c1.088-2.012,2.734-5.042,2.88-6.72c0.157-1.809-0.667-3.529-0.48-5.76
	c0.351-4.178,2.513-7.873,2.88-12.48c0.218-2.737,0.287-7.283-0.24-9.36c-0.388-1.532-2.405-2.971-3.12-4.08
	c-2.473-3.834-1.984-7.066-2.4-13.92c-0.585-9.66-4.368-22.098-3.6-33.36C212.563,139.032,217.053,129.858,223.72,127z
	 M247.24,156.04c-3.811-4.572-6.348-10.546-10.32-14.88c-2.012-2.195-4.931-3.905-6.96-6c-0.767-0.792-1.179-1.983-1.92-2.64
	c-2.18-1.933-4.874-0.666-6.24,0.96c-10.263,12.217-2.505,36.708-2.16,52.56c2.582,1.098,5.142,2.218,5.52,5.52
	c1.594-1.686,2.779-3.781,5.04-4.8c-0.938-3.215,0.912-5.402,1.2-8.16c-0.816-2.305-2.054-6.199-0.96-8.88
	c1.008,3.072,1.974,7.119,5.76,6.48c2.38-0.402,4.368-5.096,3.84-8.64c-0.399-2.676-2.933-4.229-2.64-6.24
	c1.579,0.105,3.835,0.8,5.04,0.48c-2.06-4.064-3.449-8.224-6.24-11.52c-2.768-3.268-6.543-5.427-8.64-8.64
	c8.592,4.688,14.218,12.341,17.52,22.32c-1.695-0.064-3.266-0.254-4.8-0.48c1.426,3.455,3.155,6.605,3.6,11.04
	c3.221-0.404,1.861-5.459,3.6-7.92c1.492-2.111,4.884-2.291,7.92-1.44C254.252,161.091,250.122,159.499,247.24,156.04z
	 M254.92,249.4c5.2,1.662,9.344-0.05,13.92-0.48c2.688-0.252,5.39,0.465,8.16,0.48c5.522,0.029,10.917-1.85,13.44-5.28
	c3.78-5.141,5.574-12.643,11.52-16.08c1.606-0.928,3.474-0.838,4.8-2.88c-0.697-6.342-1.737-12.343-6.479-14.64
	c1.516,2.715,3.452,8.502,1.2,12c-0.395-1.766-0.313-4.007-0.48-6c-1.122,2.786-3.591,3.19-6.24,4.56
	c-1.293,0.669-2.788,1.964-3.84,1.92c-1.587-0.067-3.136-1.784-3.36-2.64c-1.34-5.115,4.852-7.697,4.801-12
	c-0.035-2.956-2.511-2.97-4.32-4.8c-0.291-0.294-0.266-1.407-0.72-1.92c-0.306-0.345-0.773,0.183-1.2-0.48
	c-2.354-3.656-3.268-8.483-8.16-8.4c-2.763,0.047-3.565,1.808-6,3.12c0.476-2.165,2.138-3.143,3.6-4.32
	c-6.52-1.496-2.486-8.438-0.72-12.72c1.497-3.626,3.108-6.585,6.48-7.2c-3.808-2.673-9.443-3.517-15.84-3.6
	c1.1,3.923-3.09,6.441-4.32,9.6c-1.374,3.524,0.667,9.091-2.4,11.52c-1.337,0.27-2.159-1.513-2.64,0
	c-0.959-1.472-0.496-3.054-1.44-4.08c-2.929-3.187-10.002,0.485-12.72,0c-2.096,1.099-4.016,2.026-5.52,3.6
	c-2.481,2.597-2.417,6.398-4.8,9.12c-4.853-1.963,0.012-6.95,0.48-10.08c-2.195,0.667-4.952,2.853-6,6.24
	c-1.232,3.981-0.078,9.899-0.48,15.12c-0.407,5.279-2.793,9.484-3.12,12.72c-0.368,3.639,0.598,6.527,2.4,7.68
	c-0.651-5.452,0.921-12.038,3.84-13.92c-3.775,6.453-4.581,22.328,4.8,23.04c1.423-1.626,2.734-4.426,2.88-6.72
	c0.102-1.605-0.602-2.966-0.48-4.32c0.119-1.315,0.896-3.754,1.44-4.32c4.997-5.197,15.02,0.454,15.84,5.76
	c0.756,4.897-2.705,7.084-7.2,8.16c0.139,1.895,1.801,5.291,0.24,7.68c2.49,2.215,6.413,3.24,10.56,2.64
	c5.99-0.866,10.764-6.475,15.84-6.96C267.386,243.634,261.833,248.781,254.92,249.4z M324.28,216.04
	c4.024-2.276,8.503-3.441,12.479-6.24c3.604-2.537,6.671-5.432,9.36-9.36c2.51-3.665,5.277-8.589,5.04-13.68
	c-0.281-6.015-10.355-6.638-16.32-6c-10.447,1.119-22.063,4.208-31.68,5.04c1.063,1.334,2.253,1.76,2.399,3.6
	c0.214,2.679-1.888,3.464-3.119,5.76c-0.216,0.402-0.045,1.209-0.24,1.68c-0.728,1.75-2.274,3.425-1.92,5.28
	c3.427-2.973,8.026-4.773,13.2-6c-2.019-0.622-4.282-0.999-5.761-2.16c6.014-2.913,13.559-7.072,21.601-8.4
	c3.627-0.599,9.41-0.791,12.239,1.2c-12.15-1.746-21.682,3.056-29.52,7.2c3.156,0.924,6.95,1.21,10.08,2.16
	c-3.012,0.908-6.131,1.709-9.601,2.16c-1.397,1.862-4.762,3.847-5.039,6.96c-0.203,2.278,0.906,4.441,3.359,4.8
	c2.546,0.373,4.351-1.699,6.72-1.2c-1.526,1.514-3.817,2.263-6.239,2.88c0.292,4.474-4.446,7.418-3.12,12.24
	c2.374-0.561,3.859-0.73,5.76,0.48C317.324,221.598,320.054,218.431,324.28,216.04z M240.28,223.72
	c-0.637,0.243-1.365,0.395-1.44,1.2c0.665,1.131,3.519,0.796,4.56,0.24c-0.75-1.264-3.361,0.481-3.6-0.96
	c0.447-0.229,0.802,0.719,0.96,0C240.491,224.149,240.386,223.934,240.28,223.72z M244.6,223.96c-0.781-0.739-2.625-0.415-4.08-0.48
	c1.301,1.061,0.296,0.695,2.64,1.2c0.333-0.147,0.036-0.924,0.48-0.96c0.021,0.378,0.612,0.188,0.48,0.72
	c-0.344-0.446-1.166,0.376-0.72,0.72C243.956,224.916,244.517,224.677,244.6,223.96z M210.76,252.04
	c1.637,4.207,6.054,3.743,9.36,5.52c3.153,1.695,1.554,3.994,1.2,6.96c-0.301,2.525,1.458,5.003,1.2,7.2
	c-0.457,3.894-7.208,4.434-6.96,8.16c0.115,1.729,2.958,3.113,2.64,5.04c-0.406,2.463-6.697,3.573-8.4,5.521
	c-3.022,3.454-1.253,8.505-0.48,12.479c6.619-2.262,8.5-9.26,13.68-12.96c-2.724,4.156-5.405,8.355-8.64,12
	c4.108-0.293,7.971-2.108,10.8-2.88c-1.655,2.505-4.366,3.954-5.76,6.72c1.576-0.427,4.342-0.934,5.76-0.72
	c-0.885,1.995-2.166,3.594-3.12,5.52c7.635-0.535,8.627,6.734,11.76,12.721c2.125,4.061,4.98,7.9,6,12.239
	c0.892,3.795-0.42,8.298,0,12.24c0.313,2.943,1.808,5.811,2.16,8.641c1.64,0.76,3.284,1.516,5.28,1.92
	c0.185-0.613-0.939-1.104-0.24-1.44c3.188,0.345,7.462,2.996,10.8,2.4c1.777-0.317,2.233-2.325,4.08-2.4
	c0.722,0.398,0.456,1.784,1.44,1.92c2.674-0.445,4.927-1.313,7.199-2.16c1.448-4.68,1.487-10.241,1.2-16.56
	c-0.358-7.886,1.876-10.242,4.08-16.08c1.657-4.39,1.947-8.213,3.84-10.56c3.086-3.825,7.825-0.656,10.08,0.96
	c-0.498-1.822-0.504-4.137-0.479-6.48c1.837,1.203,3.338,2.742,5.76,3.36c-1.019-2.743-2.461-6.338-1.68-10.08
	c2.555,1.364,3.918,3.922,7.439,4.319c-0.868-3.256-3.398-7.26-2.16-11.04c0.652,4.948,2.902,8.299,4.32,12.48
	c-1.455-0.179-2.649,0.246-3.84,0c-1.886-0.39-3.102-2.501-4.08-1.92c0.357,3.643,1.972,6.028,3.12,8.88
	c-2.883-0.238-5.41-2.108-7.44-2.4c0.281,1.643,0.675,4.441,0.48,5.761c-2.522-1.033-3.947-4.839-7.68-4.561
	c-4.353,0.325-4.415,7.534-5.761,11.521c-1.088,3.225-3.399,5.955-4.08,9.359c-0.968,4.851,0.911,9.575,0.48,14.4
	c-0.362,4.06-2.219,7.292-1.92,10.8c0.494,5.811,5.488,6.47,8.88,8.641c1.8-2.733-0.46-7.894,0.72-10.561
	c0.472,2.889,1.39,5.331,1.2,8.88c2.719,0.915,5.931,2.505,8.88,2.4c0.108-2.923-1.115-7.833-0.24-11.521
	c1.224,3.417,1.057,8.225,2.641,11.28c8.679,2.735,8.02-7.6,6.239-12.24c2.204,2.439,3.777,8.127,1.921,11.761
	c1.508,0.068,2.911,0.031,3.84-0.48c3.049-5.454,0.604-13.624-2.88-16.8c0.61,0.124,0.931,0.409,0.96-0.48
	c-1.154-9.111,1.217-15.394,3.12-22.08c-3.421-2.13-15.219,1.719-15.601-3.84c-0.283-4.122,6.638-5.662,9.12-8.399
	c1.669-1.841,2.027-5.677,3.6-9.12c0.472-1.031,1.349-1.802,1.681-2.641c1.797-4.535-0.599-9.811-0.24-15.12
	c0.281-4.17,2.646-9.256,2.16-12.96c-0.587-4.463-4.405-7.877-4.8-12.239c-0.26-2.866,0.694-5.934,0.479-8.4
	c-0.675-7.738-6.477-11.09-6.72-19.2c-3.848,6.552-6.373,14.426-16.08,15.12c-0.068,0.235,0.511,1.53-0.72,1.68
	c-0.208-1.033-0.168-0.759,0.479-1.199c-7.859-0.827-14.846-0.767-21.6,0.72c-0.84-1.229-2.278-0.799-3.601-1.2
	c-1.118-0.339-2.177-1.276-3.359-1.68c-1.485-0.507-3.769-0.471-5.28-1.2c-1.068-0.516-1.163-1.282-2.16-1.44
	c-1.025-0.163-2.087,0.523-3.12,0.48c-4.149-0.175-6.772-2.678-8.4-6.48c-4.476-1.124-7.514-3.686-8.16-8.64
	c-1.324-0.916-2.2-2.28-3.12-3.6C219.379,237.299,213.626,243.226,210.76,252.04z M236.44,240.76c-0.557,0.077-0.921-0.038-1.2-0.24
	C236.181,242.242,237.597,244.089,236.44,240.76z M237.64,243.4c1.045,0.795,2.108,1.572,4.08,1.44c0-0.4,0-0.8,0-1.2
	c-1.817,0.137-2.448-0.913-3.84-1.2C237.898,242.858,237.826,243.187,237.64,243.4z M209.56,303.88
	c1.253,3.054,1.506,4.856,3.6,6.72c3.906,3.477,11.396,2.912,12.96,7.92c3.707,11.875-17.409,4.938-24.24,8.4
	c2.913,7.888,6.69,14.91,6.96,25.44c1.048,0.235,1.991-0.874,2.64-0.24c-4.76,1.676-8.798,6.692-6.24,13.439
	c0.927,0.048,1.769,0.009,2.4-0.239c0.949-6.011,2.133-13.067,8.4-12.96c-4.851,1.89-6.589,8.103-6.24,14.399
	c1.281,0.081,2.102-0.299,3.12-0.479c-0.192-6.126,2.856-12.334,8.64-12.48c-4.436,2.044-6.951,6.01-6.96,12.48
	c3.627-1.676,8.03,1.666,11.76-0.721c-0.054-3.974,0.084-7.755,2.4-9.359c-1.189,2.208-1.557,6.393-0.96,9.6
	c1.514,1.755,7.831,0.195,10.32-1.439c1.093-0.718,2.365-2.766,2.4-4.561c0.098-5-2.856-9.025-2.88-14.399
	c-0.015-3.423,1.056-7.197,0-11.04c-1.051-3.823-4.338-7.936-5.76-11.04c-1.958-4.274-3.414-9.257-6-11.04
	c-2.568-1.771-5.079,0.178-7.2,0.479c1.252-1.867,2.677-3.563,3.6-5.76c-2.379,0.18-4.231,0.889-6.96,0.72
	c0.531-1.891,3.898-3.433,3.36-4.8C215.898,303.498,212.749,303.708,209.56,303.88z M189.64,332.92
	c-0.607-4.468-0.153-12.099-5.52-10.08c-2.457,0.924-4.023,4.502-6.72,6.48c-1.71,1.254-3.368,1.395-4.8,2.88
	c1.031,0.009,1.767,0.313,2.4,0.72c-0.624,1.936-2.632,2.488-3.84,3.84c8.602,0.118,13.091,4.35,16.8,9.36
	c2.339,0.487,5.809-0.099,6.96-2.16C194.402,339.462,190.298,337.761,189.64,332.92z M305.08,350.92
	c1.307,0.773,1.773,2.387,3.12,3.12c1.791-1.408,1.614-4.785,3.6-6c-0.351-2.61-3.222-3.977-3.359-6
	c2.958,1.259,7.352,6.407,3.119,9.12c0.613,2.021-1.937,3.278-1.199,3.84c1.23-0.21,2.155-0.725,2.88-1.44
	c-1.497-3.161,1.562-4.346,1.92-6.239c0.825-4.368-6.012-7.952-8.88-9.601C304.442,341.216,306.196,346.877,305.08,350.92z
	 M187.48,353.8c1.508-8.53-8.152-14.939-14.88-15.359c-4.076-0.255-8.987,1.839-10.32,4.079c-1.119,1.882-1.562,7.05,0,8.881
	c1.102-1.195,0.29-2.666,0.72-4.08c0.972-3.199,5.678-6.259,9.36-5.28c-5.378,0.631-10.609,7.621-5.52,12.24
	c1.017-3.702,4.846-7.737,8.64-8.4c0.664-0.116,2.014-0.763,2.4,0.48c-5.046,1.267-10.013,4.926-8.64,11.04
	c1.896,1.376,4.685,0.275,6.96,0c1.081-2.12,2.963-4.715,4.56-5.521c-1.224,2.536-3.13,4.39-4.08,7.2
	C182.245,359.521,186.741,357.982,187.48,353.8z"/>
<path fill-rule="evenodd" clip-rule="evenodd" fill="#FFFFFF" d="M240.76,224.2c-0.158,0.719-0.513-0.229-0.96,0
	c0.239,1.441,2.851-0.304,3.6,0.96c-1.041,0.556-3.895,0.891-4.56-0.24c0.075-0.805,0.803-0.957,1.44-1.2
	C240.386,223.934,240.491,224.149,240.76,224.2z M241.96,225.16c-0.953,0.056-2.449-0.39-2.4,0
	C240.081,225.295,241.525,225.733,241.96,225.16z"/>
<path fill-rule="evenodd" clip-rule="evenodd" d="M239.56,225.16c-0.049-0.39,1.447,0.056,2.4,0
	C241.525,225.733,240.081,225.295,239.56,225.16z"/>
<path fill-rule="evenodd" clip-rule="evenodd" fill="#FFFFFF" d="M235.24,240.52c0.278,0.202,0.643,0.316,1.2,0.24
	C237.597,244.089,236.181,242.242,235.24,240.52z"/>
<path fill-rule="evenodd" clip-rule="evenodd" d="M232.36,242.44c0.708,1.263,1.011,3.306,1.68,5.04
	C233.188,246.249,232.378,243.706,232.36,242.44z"/>
<path fill-rule="evenodd" clip-rule="evenodd" d="M265.96,246.52c0.272,0.045,0.134,0.241,0,0.24
	c-0.088,0.409,0.188,0.453,0.48,0.48c-0.429,0.779-1.437,0.774-2.16,0.72c0.196-0.506,1.265-0.658,1.68-0.24
	c0.088-0.409-0.188-0.453-0.479-0.48C265.564,246.925,265.902,246.862,265.96,246.52z"/>
<path fill-rule="evenodd" clip-rule="evenodd" d="M242.68,247.24c0.38,0.581,1.532,1.557,2.4,1.2c0.383,0.336,0.613,0.827,0.72,1.44
	c0.155-0.988,0.531-0.866,0.72-1.68c0.204-0.044,0.227,0.093,0.24,0.24c0.16,0,0.32,0,0.48,0c-0.377,0.183-0.359,0.761-0.96,0.72
	c0.47,1.556,0.521,2.606-0.48,3.6c0.085,0.337,0.423,0.021,0.48-0.24c0.59-0.606-0.256,1.347-0.72,0.48
	c0.601,1.003-0.691,0.901-1.44,1.2c0.5,0.847,0.008,0.439-0.48,0.72c-0.095,0.575,1.093-0.133,0.72,0.72
	c-0.43,0.031-0.506-0.294-0.96-0.239c-0.237-0.958,0.717-0.723,0.48-1.681c0.643,0.745,0.913-0.629,1.44,0
	c0.128-1.778,1.555-1.89,0.96-3.84c-0.599,1.923-0.345-0.73-1.68-1.2c-1.874-0.659-5.939,1.524-7.44,0.48
	c0.158-0.322,0.513-0.447,0.96-0.48c1.105,0.523,3.628-0.049,5.04-0.24C242.546,248.335,243.02,248.21,242.68,247.24z"/>
<path fill-rule="evenodd" clip-rule="evenodd" fill="#FFFFFF" d="M272.68,240.52c-5.076,0.485-9.85,6.094-15.84,6.96
	c-4.147,0.6-8.07-0.425-10.56-2.64c1.561-2.389-0.101-5.785-0.24-7.68c4.495-1.076,7.956-3.263,7.2-8.16
	c-0.82-5.306-10.843-10.957-15.84-5.76c-0.544,0.566-1.321,3.004-1.44,4.32c-0.122,1.354,0.582,2.714,0.48,4.32
	c-0.146,2.294-1.457,5.094-2.88,6.72c-9.381-0.712-8.576-16.587-4.8-23.04c-2.918,1.882-4.491,8.468-3.84,13.92
	c-1.802-1.153-2.768-4.041-2.4-7.68c0.327-3.236,2.713-7.441,3.12-12.72c0.402-5.221-0.752-11.139,0.48-15.12
	c1.048-3.387,3.805-5.573,6-6.24c-0.468,3.13-5.333,8.116-0.48,10.08c2.382-2.721,2.318-6.523,4.8-9.12
	c1.504-1.574,3.424-2.501,5.52-3.6c2.717,0.485,9.791-3.187,12.72,0c0.944,1.026,0.481,2.608,1.44,4.08
	c0.48-1.513,1.303,0.27,2.64,0c3.067-2.429,1.026-7.996,2.4-11.52c1.23-3.159,5.42-5.677,4.32-9.6
	c6.396,0.083,12.032,0.927,15.84,3.6c-3.372,0.615-4.983,3.573-6.48,7.2c-1.767,4.282-5.8,11.224,0.72,12.72
	c-1.462,1.177-3.124,2.155-3.6,4.32c2.435-1.312,3.237-3.073,6-3.12c4.893-0.083,5.806,4.745,8.16,8.4
	c0.427,0.663,0.895,0.135,1.2,0.48c0.454,0.513,0.429,1.626,0.72,1.92c1.81,1.83,4.285,1.844,4.32,4.8
	c0.051,4.303-6.141,6.885-4.801,12c0.225,0.856,1.773,2.573,3.36,2.64c1.052,0.044,2.547-1.251,3.84-1.92
	c2.649-1.37,5.118-1.774,6.24-4.56c0.168,1.993,0.086,4.234,0.48,6c2.252-3.498,0.315-9.285-1.2-12
	c4.742,2.297,5.782,8.298,6.479,14.64c-1.326,2.042-3.193,1.952-4.8,2.88c-5.945,3.437-7.739,10.939-11.52,16.08
	c-2.523,3.43-7.918,5.309-13.44,5.28c-2.771-0.015-5.472-0.732-8.16-0.48c-4.576,0.43-8.72,2.142-13.92,0.48
	C261.833,248.781,267.386,243.634,272.68,240.52z M268.36,247c0.853,0.373,0.145-0.815,0.72-0.72c0.014,0.146,0.036,0.284,0.24,0.24
	c-0.937-1.201,1.169-2.861,0.479-4.08C269.075,243.975,269.139,244.997,268.36,247z M266.92,247.72
	c1.571-0.361,2.527,1.274,3.36,0.48c-1.076-0.238-1.341-0.336-1.2-1.44C269.227,247.946,267.354,247.115,266.92,247.72z
	 M235.96,204.76c0.653,1.188,2.353,1.327,1.92,3.6c-1.53,1.51-4.141,1.939-4.8,4.32c6.438-4.202,18.334-2.946,17.76-14.16
	c-1.171,0.188-0.667,2.053-1.68,2.4c-1.561-2.599-1.164-7.156-3.84-8.64C237.034,191.471,234.066,196.749,235.96,204.76z
	 M283.24,218.92c0.588-5.199-1.202-10.956-4.561-12.48c-5.897-2.677-8.621,5.082-13.199,2.16c-0.127-1.007,0.419-1.341,0.479-2.16
	c-1.067,0.346-1.504,1.166-1.68,1.92c-1.611,6.904,7.829,13.228,5.04,21.84c1.513-0.647,1.451-2.869,1.68-4.8
	C275.214,223.374,279.051,220.971,283.24,218.92z M265.48,247.24c0.292,0.027,0.567,0.071,0.479,0.48
	c-0.415-0.418-1.483-0.266-1.68,0.24c0.724,0.055,1.731,0.06,2.16-0.72c-0.293-0.027-0.568-0.072-0.48-0.48
	c0.134,0.001,0.272-0.194,0-0.24C265.902,246.862,265.564,246.925,265.48,247.24z M275.56,248.44
	c-0.612,0.186-1.103-0.939-1.439-0.24c0.133-0.001,0.272,0.194,0,0.24c-0.146,0.014-0.284,0.036-0.24,0.24
	c0.454,0.054,0.529-0.271,0.96-0.24C274.879,248.748,276.305,248.748,275.56,248.44z M259.96,249.64
	c-0.274-1.058,1.204,0.834,1.68-0.24C261.088,249.319,258.899,248.514,259.96,249.64z"/>
<path fill-rule="evenodd" clip-rule="evenodd" d="M274.84,248.44c-0.431-0.03-0.506,0.294-0.96,0.24
	c-0.044-0.204,0.094-0.227,0.24-0.24c0.272-0.045,0.133-0.241,0-0.24c0.337-0.699,0.827,0.425,1.439,0.24
	C276.305,248.748,274.879,248.748,274.84,248.44z"/>
<path fill-rule="evenodd" clip-rule="evenodd" d="M235,248.68c0.221-0.419,0.75-0.53,1.44-0.48c-1.236,0.543-0.105,0.552,0.72,0.24
	c-0.127,0.193-0.25,0.39-0.24,0.72C236.157,249.124,235.864,248.616,235,248.68z"/>
<path fill-rule="evenodd" clip-rule="evenodd" d="M252.76,249.88c0.43-0.071,0.016,0.932-0.479,0.72
	c-0.104,1.053,0.735,0.789,0.239,1.681c0.588-0.847,0.261,0.253,1.2-0.24c-0.37,1.026,1.315,1.224,0.721,1.68
	c-0.035,0.175-0.314-0.471-1.44,0c0-0.399,0-0.8,0-1.2c-0.918,0.213,0.2,1.341-0.72,1.2c0.049-0.751-0.162-1.762,0.239-2.16
	c-0.824,1.264-0.606,3.157-0.72,0c0.16,0,0.32,0,0.48,0c-0.134-0.786-0.929-0.366-0.721,0.48
	C250.756,251.915,252.295,250.303,252.76,249.88z"/>
<path fill-rule="evenodd" clip-rule="evenodd" fill="#FFFFFF" d="M222.04,228.28c0.92,1.32,1.796,2.684,3.12,3.6
	c0.646,4.955,3.684,7.516,8.16,8.64c1.628,3.802,4.251,6.305,8.4,6.48c1.033,0.043,2.094-0.643,3.12-0.48
	c0.997,0.158,1.092,0.924,2.16,1.44c1.512,0.729,3.795,0.693,5.28,1.2c1.183,0.403,2.241,1.341,3.359,1.68
	c1.322,0.401,2.761-0.028,3.601,1.2c6.754-1.486,13.74-1.547,21.6-0.72c-0.647,0.44-0.688,0.166-0.479,1.199
	c1.23-0.149,0.651-1.444,0.72-1.68c9.707-0.693,12.232-8.567,16.08-15.12c0.243,8.109,6.045,11.462,6.72,19.2
	c0.215,2.467-0.739,5.534-0.479,8.4c0.395,4.362,4.213,7.776,4.8,12.239c0.486,3.704-1.879,8.79-2.16,12.96
	c-0.358,5.31,2.037,10.585,0.24,15.12c-0.332,0.839-1.209,1.609-1.681,2.641c-1.572,3.443-1.931,7.279-3.6,9.12
	c-2.482,2.737-9.403,4.277-9.12,8.399c0.382,5.559,12.18,1.71,15.601,3.84c-1.903,6.687-4.274,12.969-3.12,22.08
	c-0.029,0.89-0.35,0.604-0.96,0.48c3.484,3.176,5.929,11.346,2.88,16.8c-0.929,0.512-2.332,0.549-3.84,0.48
	c1.856-3.634,0.283-9.321-1.921-11.761c1.78,4.641,2.439,14.976-6.239,12.24c-1.584-3.056-1.417-7.863-2.641-11.28
	c-0.875,3.688,0.349,8.598,0.24,11.521c-2.949,0.104-6.161-1.485-8.88-2.4c0.189-3.549-0.729-5.991-1.2-8.88
	c-1.18,2.667,1.08,7.827-0.72,10.561c-3.392-2.171-8.386-2.83-8.88-8.641c-0.299-3.508,1.558-6.74,1.92-10.8
	c0.431-4.825-1.448-9.55-0.48-14.4c0.681-3.404,2.992-6.135,4.08-9.359c1.346-3.986,1.408-11.195,5.761-11.521
	c3.732-0.278,5.157,3.527,7.68,4.561c0.194-1.319-0.199-4.118-0.48-5.761c2.03,0.292,4.558,2.162,7.44,2.4
	c-1.148-2.852-2.763-5.237-3.12-8.88c0.979-0.581,2.194,1.53,4.08,1.92c1.19,0.246,2.385-0.179,3.84,0
	c-1.418-4.182-3.668-7.532-4.32-12.48c-1.238,3.78,1.292,7.784,2.16,11.04c-3.521-0.397-4.885-2.955-7.439-4.319
	c-0.781,3.742,0.661,7.337,1.68,10.08c-2.422-0.618-3.923-2.157-5.76-3.36c-0.024,2.344-0.019,4.658,0.479,6.48
	c-2.255-1.616-6.994-4.785-10.08-0.96c-1.893,2.347-2.183,6.17-3.84,10.56c-2.204,5.838-4.438,8.194-4.08,16.08
	c0.287,6.318,0.248,11.88-1.2,16.56c-2.272,0.848-4.525,1.715-7.199,2.16c-0.984-0.136-0.719-1.521-1.44-1.92
	c-1.847,0.075-2.303,2.083-4.08,2.4c-3.338,0.596-7.612-2.056-10.8-2.4c-0.699,0.337,0.425,0.827,0.24,1.44
	c-1.996-0.404-3.64-1.16-5.28-1.92c-0.353-2.83-1.847-5.697-2.16-8.641c-0.42-3.942,0.892-8.445,0-12.24
	c-1.02-4.339-3.875-8.179-6-12.239c-3.133-5.986-4.125-13.256-11.76-12.721c0.954-1.926,2.235-3.524,3.12-5.52
	c-1.418-0.214-4.184,0.293-5.76,0.72c1.394-2.766,4.105-4.215,5.76-6.72c-2.83,0.771-6.692,2.587-10.8,2.88
	c3.235-3.645,5.917-7.844,8.64-12c-5.18,3.7-7.062,10.698-13.68,12.96c-0.773-3.975-2.542-9.025,0.48-12.479
	c1.703-1.947,7.994-3.058,8.4-5.521c0.317-1.927-2.525-3.311-2.64-5.04c-0.249-3.727,6.503-4.267,6.96-8.16
	c0.257-2.197-1.501-4.675-1.2-7.2c0.354-2.966,1.954-5.265-1.2-6.96c-3.307-1.776-7.724-1.313-9.36-5.52
	C213.626,243.226,219.379,237.299,222.04,228.28z M251.56,252.04c-0.208-0.847,0.587-1.267,0.721-0.48c-0.16,0-0.32,0-0.48,0
	c0.113,3.157-0.104,1.264,0.72,0c-0.401,0.398-0.19,1.409-0.239,2.16c0.92,0.141-0.198-0.987,0.72-1.2c0,0.4,0,0.801,0,1.2
	c1.126-0.471,1.405,0.175,1.44,0c0.595-0.456-1.091-0.653-0.721-1.68c-0.939,0.493-0.612-0.606-1.2,0.24
	c0.496-0.892-0.344-0.628-0.239-1.681c0.495,0.212,0.909-0.791,0.479-0.72C252.295,250.303,250.756,251.915,251.56,252.04z
	 M234.04,247.48c-0.669-1.734-0.973-3.777-1.68-5.04C232.378,243.706,233.188,246.249,234.04,247.48z M243.16,248.44
	c-1.412,0.191-3.935,0.764-5.04,0.24c-0.447,0.033-0.802,0.158-0.96,0.48c1.5,1.044,5.566-1.139,7.44-0.48
	c1.334,0.469,1.081,3.123,1.68,1.2c0.595,1.95-0.832,2.062-0.96,3.84c-0.527-0.629-0.797,0.745-1.44,0
	c0.237,0.958-0.717,0.723-0.48,1.681c0.454-0.055,0.53,0.271,0.96,0.239c0.373-0.853-0.815-0.145-0.72-0.72
	c0.488-0.28,0.98,0.127,0.48-0.72c0.749-0.299,2.041-0.197,1.44-1.2c0.463,0.866,1.31-1.087,0.72-0.48
	c-0.057,0.261-0.395,0.577-0.48,0.24c1-0.993,0.95-2.044,0.48-3.6c0.602,0.041,0.583-0.538,0.96-0.72c-0.16,0-0.32,0-0.48,0
	c-0.013-0.146-0.036-0.284-0.24-0.24c-0.189,0.814-0.565,0.691-0.72,1.68c-0.106-0.613-0.336-1.104-0.72-1.44
	c-0.868,0.357-2.02-0.619-2.4-1.2C243.02,248.21,242.546,248.335,243.16,248.44z M236.92,249.16c-0.01-0.331,0.113-0.527,0.24-0.72
	c-0.826,0.313-1.956,0.303-0.72-0.24c-0.689-0.05-1.219,0.061-1.44,0.48C235.864,248.616,236.157,249.124,236.92,249.16z
	 M253,250.36c-0.797,0.284-0.135,1.863,0.48,1.199c-0.302-0.098-0.491-0.31-0.48-0.72C253.242,250.837,253.302,250.419,253,250.36z
	 M268.12,253.72c1.567-0.224-0.262-1.108,0.24-2.399c-1.119-0.211,0.33,0.622-0.48,0.72c-0.256-0.224-0.074-0.886-0.72-0.72
	c0.073,0.979-0.501,0.128-0.96,0.239c-0.041,0.388-0.806,1.237-0.24,1.44C266.816,252.593,269.185,252.245,268.12,253.72z
	 M257.56,254.2c-0.04,0.358,0.086,0.886-0.239,0.96c0.074-0.628-0.267-2.19,0.479-1.44c0.011-0.33-0.112-0.526-0.24-0.72
	c-0.013-0.146-0.035-0.284-0.239-0.24c-0.112,0.643-1.287,1.86-0.24,0.96c0.05,0.69-0.061,1.22-0.48,1.44
	c0.489-0.859-1.113-1.191-0.479-0.72c0.187,0.053,0.279,0.2,0.24,0.479c-1.33-0.461-4.693,0.411-3.12,0.24c0.88,0,1.76,0,2.64,0
	c0.401,0.318,0.805,0.636,1.68,0.479C257.713,255.389,258.036,253.583,257.56,254.2z M251.08,254.92
	c0.913-0.353,0.047,1.073,0.96,0.72c0.53-0.029,0.102-1.018,0.24-1.439c-1.128-0.253,0.395,0.81-0.48,0.96
	c-0.058-0.343-0.396-0.405-0.479-0.72c0.074-0.275,0.47-1.585,0-0.96C251.325,254.045,250.906,254.187,251.08,254.92z
	 M270.04,254.92c-0.076-0.557,0.038-0.921,0.24-1.2c-0.807,0.476-0.401,2.095-0.48,2.641c-0.038-1.379,1.322-1.237,0.96-1.92
	c-0.801,0.696,0.592-1.626,0-0.721C270.004,253.604,270.58,254.82,270.04,254.92z M247.96,278.68c0.198-0.776-0.299-2.075,0-2.16
	c4.49,2.07,7.954,5.166,11.521,8.16c5.111-1.448,8.437-4.683,12.72-6.96c0.758-0.118,0.089,1.191,0.96,0.96
	c7.685-3.115,12.999-8.6,17.04-15.359c-5.004,4.996-9.389,10.611-16.561,13.439c0.048-0.687,0.03-1.31-0.72-1.2
	c-2.223,0.906-3.969,2.154-6.24,3.601c-1.73,1.102-4.807,3.588-6.72,3.359c-0.686-0.081-2.499-1.716-3.36-2.399
	c-3.551-2.819-6.967-4.877-10.8-6.72c-0.263,1.153,0.741,2.285,0,3.119c-6.668-3.091-11.259-8.26-15.36-13.92
	C233.904,270.336,239.313,276.126,247.96,278.68z M290.92,350.68c-2.976-0.027-6.634,0.105-8.4,1.44
	c5.498,0.342,11.375,0.305,16.801,0.72C297.809,351.207,294.18,350.711,290.92,350.68z"/>
<path fill-rule="evenodd" clip-rule="evenodd" d="M265.96,253c-0.565-0.203,0.199-1.053,0.24-1.44
	c0.459-0.111,1.033,0.74,0.96-0.239c0.646-0.166,0.464,0.496,0.72,0.72c0.811-0.098-0.639-0.931,0.48-0.72
	c-0.502,1.291,1.327,2.176-0.24,2.399C269.185,252.245,266.816,252.593,265.96,253z"/>
<path fill-rule="evenodd" clip-rule="evenodd" d="M257.56,255.64c-0.875,0.156-1.278-0.161-1.68-0.479c-0.88,0-1.76,0-2.64,0
	c-1.573,0.171,1.79-0.701,3.12-0.24c0.039-0.279-0.054-0.427-0.24-0.479c-0.634-0.472,0.969-0.14,0.479,0.72
	c0.42-0.221,0.53-0.75,0.48-1.44c-1.047,0.9,0.128-0.317,0.24-0.96c0.204-0.044,0.227,0.094,0.239,0.24
	c0.128,0.193,0.251,0.39,0.24,0.72c-0.746-0.75-0.405,0.813-0.479,1.44c0.325-0.074,0.199-0.602,0.239-0.96
	C258.036,253.583,257.713,255.389,257.56,255.64z"/>
<path fill-rule="evenodd" clip-rule="evenodd" d="M251.32,253.48c0.47-0.625,0.074,0.685,0,0.96c0.084,0.314,0.422,0.377,0.479,0.72
	c0.875-0.15-0.647-1.213,0.48-0.96c-0.139,0.422,0.29,1.41-0.24,1.439c-0.913,0.354-0.047-1.072-0.96-0.72
	C250.906,254.187,251.325,254.045,251.32,253.48z"/>
<path fill-rule="evenodd" clip-rule="evenodd" d="M270.76,253.72c0.592-0.905-0.801,1.417,0,0.721
	c0.362,0.683-0.998,0.541-0.96,1.92c0.079-0.546-0.326-2.165,0.48-2.641c-0.202,0.279-0.316,0.644-0.24,1.2
	C270.58,254.82,270.004,253.604,270.76,253.72z"/>
<path fill-rule="evenodd" clip-rule="evenodd" fill="#FFFFFF" d="M239.8,196.12c0.4,0,0.8,0,1.2,0
	c-0.003,0.636,0.133,1.413-0.48,1.44C239.661,197.7,239.791,196.85,239.8,196.12z"/>
<path fill-rule="evenodd" clip-rule="evenodd" fill="#FFFFFF" d="M243.4,225.16c-0.446-0.344,0.376-1.166,0.72-0.72
	c0.132-0.532-0.458-0.342-0.48-0.72c-0.444,0.036-0.147,0.813-0.48,0.96c-2.344-0.505-1.339-0.139-2.64-1.2
	c1.455,0.065,3.299-0.259,4.08,0.48C244.517,224.677,243.956,224.916,243.4,225.16z"/>
</svg>
